<svg id="visual" viewBox="0 0 900 600" width="900" height="600" xmlns="http://www.w3.org/2000/svg" xmlns:xlink="http://www.w3.org/1999/xlink" version="1.1"><g stroke-width="1" stroke-linejoin="bevel"><path d="M439.1 341L413.1 403L421.1 410Z" fill="#2d84c7" stroke="#2d84c7"></path><path d="M421.1 410L491.9 397L439.1 341Z" fill="#8ecae6" stroke="#8ecae6"></path><path d="M491.9 397L528.7 335L439.1 341Z" fill="#7dbfe1" stroke="#7dbfe1"></path><path d="M466.9 261L425.1 265L439.1 341Z" fill="#6cb3dc" stroke="#6cb3dc"></path><path d="M439.1 341L324.3 327L413.1 403Z" fill="#0854ac" stroke="#0854ac"></path><path d="M344.3 486L490.9 487L421.1 410Z" fill="#1f78c1" stroke="#1f78c1"></path><path d="M421.1 410L490.9 487L491.9 397Z" fill="#2d84c7" stroke="#2d84c7"></path><path d="M491.9 397L639.5 383L528.7 335Z" fill="#4b9cd2" stroke="#4b9cd2"></path><path d="M528.7 335L466.9 261L439.1 341Z" fill="#4b9cd2" stroke="#4b9cd2"></path><path d="M425.1 265L324.3 327L439.1 341Z" fill="#2d84c7" stroke="#2d84c7"></path><path d="M413.1 403L344.3 486L421.1 410Z" fill="#8ecae6" stroke="#8ecae6"></path><path d="M324.3 327L304.3 391L413.1 403Z" fill="#5ba8d7" stroke="#5ba8d7"></path><path d="M304.3 391L344.3 486L413.1 403Z" fill="#7dbfe1" stroke="#7dbfe1"></path><path d="M466.9 261L454.9 234L425.1 265Z" fill="#8ecae6" stroke="#8ecae6"></path><path d="M425.1 265L353.3 226L324.3 327Z" fill="#1f78c1" stroke="#1f78c1"></path><path d="M543.7 258L454.9 234L466.9 261Z" fill="#0860b4" stroke="#0860b4"></path><path d="M504.9 522L534.7 493L490.9 487Z" fill="#126cbb" stroke="#126cbb"></path><path d="M490.9 487L534.7 493L491.9 397Z" fill="#126cbb" stroke="#126cbb"></path><path d="M371.1 564L504.9 522L490.9 487Z" fill="#7dbfe1" stroke="#7dbfe1"></path><path d="M568.7 262L543.7 258L528.7 335Z" fill="#2d84c7" stroke="#2d84c7"></path><path d="M528.7 335L543.7 258L466.9 261Z" fill="#0860b4" stroke="#0860b4"></path><path d="M639.5 383L568.7 262L528.7 335Z" fill="#0854ac" stroke="#0854ac"></path><path d="M455.9 120L425.1 180L454.9 234Z" fill="#8ecae6" stroke="#8ecae6"></path><path d="M324.3 327L268.5 377L304.3 391Z" fill="#1f78c1" stroke="#1f78c1"></path><path d="M304.3 391L283.3 502L344.3 486Z" fill="#4b9cd2" stroke="#4b9cd2"></path><path d="M425.1 180L353.3 226L425.1 265Z" fill="#7dbfe1" stroke="#7dbfe1"></path><path d="M324.3 327L241.5 318L268.5 377Z" fill="#2d84c7" stroke="#2d84c7"></path><path d="M504.9 522L564.7 529L534.7 493Z" fill="#2d84c7" stroke="#2d84c7"></path><path d="M534.7 493L639.5 383L491.9 397Z" fill="#2d84c7" stroke="#2d84c7"></path><path d="M687.5 484L639.5 383L534.7 493Z" fill="#7dbfe1" stroke="#7dbfe1"></path><path d="M283.3 502L371.1 564L344.3 486Z" fill="#126cbb" stroke="#126cbb"></path><path d="M344.3 486L371.1 564L490.9 487Z" fill="#0860b4" stroke="#0860b4"></path><path d="M504.9 522L500.9 600L564.7 529Z" fill="#2d84c7" stroke="#2d84c7"></path><path d="M455.9 120L454.9 234L548.7 113Z" fill="#5ba8d7" stroke="#5ba8d7"></path><path d="M454.9 234L425.1 180L425.1 265Z" fill="#2d84c7" stroke="#2d84c7"></path><path d="M238.5 409L283.3 502L304.3 391Z" fill="#126cbb" stroke="#126cbb"></path><path d="M180.6 344L238.5 409L268.5 377Z" fill="#126cbb" stroke="#126cbb"></path><path d="M268.5 377L238.5 409L304.3 391Z" fill="#126cbb" stroke="#126cbb"></path><path d="M240.5 212L241.5 318L324.3 327Z" fill="#6cb3dc" stroke="#6cb3dc"></path><path d="M334.3 600L410.1 600L371.1 564Z" fill="#5ba8d7" stroke="#5ba8d7"></path><path d="M371.1 564L410.1 600L504.9 522Z" fill="#3c90cd" stroke="#3c90cd"></path><path d="M410.1 600L500.9 600L504.9 522Z" fill="#7dbfe1" stroke="#7dbfe1"></path><path d="M283.3 502L334.3 600L371.1 564Z" fill="#0854ac" stroke="#0854ac"></path><path d="M180.6 344L199.6 427L238.5 409Z" fill="#0860b4" stroke="#0860b4"></path><path d="M238.5 409L199.6 427L283.3 502Z" fill="#8ecae6" stroke="#8ecae6"></path><path d="M283.3 502L228.5 600L334.3 600Z" fill="#6cb3dc" stroke="#6cb3dc"></path><path d="M722.4 470L686.5 341L639.5 383Z" fill="#1f78c1" stroke="#1f78c1"></path><path d="M639.5 383L686.5 341L568.7 262Z" fill="#6cb3dc" stroke="#6cb3dc"></path><path d="M597.7 600L643.5 535L564.7 529Z" fill="#126cbb" stroke="#126cbb"></path><path d="M564.7 529L687.5 484L534.7 493Z" fill="#2d84c7" stroke="#2d84c7"></path><path d="M548.7 113L454.9 234L543.7 258Z" fill="#2d84c7" stroke="#2d84c7"></path><path d="M301.3 125L240.5 212L353.3 226Z" fill="#3c90cd" stroke="#3c90cd"></path><path d="M353.3 226L240.5 212L324.3 327Z" fill="#8ecae6" stroke="#8ecae6"></path><path d="M548.7 113L543.7 258L568.7 262Z" fill="#5ba8d7" stroke="#5ba8d7"></path><path d="M301.3 125L353.3 226L425.1 180Z" fill="#3c90cd" stroke="#3c90cd"></path><path d="M241.5 318L180.6 344L268.5 377Z" fill="#1f78c1" stroke="#1f78c1"></path><path d="M184.6 317L180.6 344L241.5 318Z" fill="#5ba8d7" stroke="#5ba8d7"></path><path d="M240.5 212L184.6 317L241.5 318Z" fill="#0860b4" stroke="#0860b4"></path><path d="M686.5 341L680.5 264L568.7 262Z" fill="#7dbfe1" stroke="#7dbfe1"></path><path d="M643.5 535L687.5 484L564.7 529Z" fill="#5ba8d7" stroke="#5ba8d7"></path><path d="M500.9 600L597.7 600L564.7 529Z" fill="#1f78c1" stroke="#1f78c1"></path><path d="M643.5 535L701.4 513L687.5 484Z" fill="#2d84c7" stroke="#2d84c7"></path><path d="M121.6 567L210.5 534L68.8 475Z" fill="#6cb3dc" stroke="#6cb3dc"></path><path d="M199.6 427L210.5 534L283.3 502Z" fill="#7dbfe1" stroke="#7dbfe1"></path><path d="M682.5 151L548.7 113L568.7 262Z" fill="#126cbb" stroke="#126cbb"></path><path d="M455.9 120L301.3 125L425.1 180Z" fill="#7dbfe1" stroke="#7dbfe1"></path><path d="M415.1 37L301.3 125L455.9 120Z" fill="#1f78c1" stroke="#1f78c1"></path><path d="M643.5 600L701.4 513L643.5 535Z" fill="#7dbfe1" stroke="#7dbfe1"></path><path d="M775.4 392L729.4 315L686.5 341Z" fill="#8ecae6" stroke="#8ecae6"></path><path d="M686.5 341L729.4 315L680.5 264Z" fill="#0860b4" stroke="#0860b4"></path><path d="M722.4 470L639.5 383L687.5 484Z" fill="#8ecae6" stroke="#8ecae6"></path><path d="M680.5 264L692.4 181L568.7 262Z" fill="#126cbb" stroke="#126cbb"></path><path d="M701.4 513L722.4 470L687.5 484Z" fill="#3c90cd" stroke="#3c90cd"></path><path d="M301.3 125L213.5 190L240.5 212Z" fill="#1f78c1" stroke="#1f78c1"></path><path d="M240.5 212L134.6 243L184.6 317Z" fill="#8ecae6" stroke="#8ecae6"></path><path d="M597.7 600L643.5 600L643.5 535Z" fill="#5ba8d7" stroke="#5ba8d7"></path><path d="M210.5 534L228.5 600L283.3 502Z" fill="#3c90cd" stroke="#3c90cd"></path><path d="M779.2 153L692.4 181L680.5 264Z" fill="#126cbb" stroke="#126cbb"></path><path d="M184.6 317L118.8 378L180.6 344Z" fill="#8ecae6" stroke="#8ecae6"></path><path d="M180.6 344L118.8 378L199.6 427Z" fill="#3c90cd" stroke="#3c90cd"></path><path d="M210.5 534L126.6 600L228.5 600Z" fill="#3c90cd" stroke="#3c90cd"></path><path d="M79.8 265L118.8 378L184.6 317Z" fill="#7dbfe1" stroke="#7dbfe1"></path><path d="M681.5 97L546.7 68L548.7 113Z" fill="#0854ac" stroke="#0854ac"></path><path d="M548.7 113L546.7 68L455.9 120Z" fill="#7dbfe1" stroke="#7dbfe1"></path><path d="M692.4 181L682.5 151L568.7 262Z" fill="#2d84c7" stroke="#2d84c7"></path><path d="M722.4 470L775.4 392L686.5 341Z" fill="#0854ac" stroke="#0854ac"></path><path d="M729.4 315L784.2 312L680.5 264Z" fill="#5ba8d7" stroke="#5ba8d7"></path><path d="M713.4 112L681.5 97L682.5 151Z" fill="#7dbfe1" stroke="#7dbfe1"></path><path d="M823.2 374L775.4 392L837.2 451Z" fill="#126cbb" stroke="#126cbb"></path><path d="M213.5 190L134.6 243L240.5 212Z" fill="#2d84c7" stroke="#2d84c7"></path><path d="M123.6 192L134.6 243L213.5 190Z" fill="#5ba8d7" stroke="#5ba8d7"></path><path d="M526.9 46L415.1 37L455.9 120Z" fill="#126cbb" stroke="#126cbb"></path><path d="M301.3 125L191.6 76L213.5 190Z" fill="#2d84c7" stroke="#2d84c7"></path><path d="M529.7 0L526.9 46L546.7 68Z" fill="#5ba8d7" stroke="#5ba8d7"></path><path d="M546.7 68L526.9 46L455.9 120Z" fill="#126cbb" stroke="#126cbb"></path><path d="M415.1 37L283.3 73L301.3 125Z" fill="#0860b4" stroke="#0860b4"></path><path d="M775.4 392L784.2 312L729.4 315Z" fill="#1f78c1" stroke="#1f78c1"></path><path d="M191.6 76L123.6 192L213.5 190Z" fill="#126cbb" stroke="#126cbb"></path><path d="M134.6 243L79.8 265L184.6 317Z" fill="#2d84c7" stroke="#2d84c7"></path><path d="M713.4 112L682.5 151L692.4 181Z" fill="#8ecae6" stroke="#8ecae6"></path><path d="M682.5 151L681.5 97L548.7 113Z" fill="#8ecae6" stroke="#8ecae6"></path><path d="M68.8 475L210.5 534L199.6 427Z" fill="#0860b4" stroke="#0860b4"></path><path d="M289.3 0L266.5 48L283.3 73Z" fill="#3c90cd" stroke="#3c90cd"></path><path d="M283.3 73L191.6 76L301.3 125Z" fill="#7dbfe1" stroke="#7dbfe1"></path><path d="M526.9 46L449.9 0L415.1 37Z" fill="#4b9cd2" stroke="#4b9cd2"></path><path d="M415.1 37L289.3 0L283.3 73Z" fill="#0860b4" stroke="#0860b4"></path><path d="M529.7 0L449.9 0L526.9 46Z" fill="#4b9cd2" stroke="#4b9cd2"></path><path d="M123.6 192L79.8 265L134.6 243Z" fill="#126cbb" stroke="#126cbb"></path><path d="M118.8 378L68.8 475L199.6 427Z" fill="#5ba8d7" stroke="#5ba8d7"></path><path d="M449.9 0L418.1 0L415.1 37Z" fill="#2d84c7" stroke="#2d84c7"></path><path d="M779.2 153L713.4 112L692.4 181Z" fill="#8ecae6" stroke="#8ecae6"></path><path d="M775.4 392L823.2 374L784.2 312Z" fill="#126cbb" stroke="#126cbb"></path><path d="M784.2 312L779.2 153L680.5 264Z" fill="#0854ac" stroke="#0854ac"></path><path d="M837.2 451L775.4 392L722.4 470Z" fill="#7dbfe1" stroke="#7dbfe1"></path><path d="M823.2 514L722.4 470L701.4 513Z" fill="#4b9cd2" stroke="#4b9cd2"></path><path d="M121.6 567L126.6 600L210.5 534Z" fill="#1f78c1" stroke="#1f78c1"></path><path d="M37.8 484L68.8 475L0 407Z" fill="#6cb3dc" stroke="#6cb3dc"></path><path d="M121.6 567L51.8 600L126.6 600Z" fill="#2d84c7" stroke="#2d84c7"></path><path d="M649.5 0L546.7 68L681.5 97Z" fill="#126cbb" stroke="#126cbb"></path><path d="M649.5 0L529.7 0L546.7 68Z" fill="#5ba8d7" stroke="#5ba8d7"></path><path d="M266.5 48L191.6 76L283.3 73Z" fill="#6cb3dc" stroke="#6cb3dc"></path><path d="M0 210L57.8 276L79.8 265Z" fill="#2d84c7" stroke="#2d84c7"></path><path d="M643.5 600L767.4 600L701.4 513Z" fill="#126cbb" stroke="#126cbb"></path><path d="M0 210L79.8 265L123.6 192Z" fill="#6cb3dc" stroke="#6cb3dc"></path><path d="M79.8 265L57.8 276L118.8 378Z" fill="#8ecae6" stroke="#8ecae6"></path><path d="M823.2 514L837.2 451L722.4 470Z" fill="#6cb3dc" stroke="#6cb3dc"></path><path d="M767.4 600L823.2 514L701.4 513Z" fill="#0854ac" stroke="#0854ac"></path><path d="M855.2 251L779.2 153L784.2 312Z" fill="#2d84c7" stroke="#2d84c7"></path><path d="M266.5 48L201.5 0L191.6 76Z" fill="#7dbfe1" stroke="#7dbfe1"></path><path d="M418.1 0L289.3 0L415.1 37Z" fill="#5ba8d7" stroke="#5ba8d7"></path><path d="M767.4 600L787.2 600L823.2 514Z" fill="#6cb3dc" stroke="#6cb3dc"></path><path d="M0 407L68.8 475L118.8 378Z" fill="#126cbb" stroke="#126cbb"></path><path d="M68.8 475L37.8 484L121.6 567Z" fill="#0860b4" stroke="#0860b4"></path><path d="M720.4 0L649.5 0L681.5 97Z" fill="#6cb3dc" stroke="#6cb3dc"></path><path d="M754.4 71L681.5 97L713.4 112Z" fill="#0860b4" stroke="#0860b4"></path><path d="M900 291L855.2 251L784.2 312Z" fill="#4b9cd2" stroke="#4b9cd2"></path><path d="M900 291L784.2 312L823.2 374Z" fill="#126cbb" stroke="#126cbb"></path><path d="M85.8 38L80.8 137L191.6 76Z" fill="#7dbfe1" stroke="#7dbfe1"></path><path d="M191.6 76L80.8 137L123.6 192Z" fill="#0860b4" stroke="#0860b4"></path><path d="M832.2 87L754.4 71L779.2 153Z" fill="#6cb3dc" stroke="#6cb3dc"></path><path d="M779.2 153L754.4 71L713.4 112Z" fill="#0854ac" stroke="#0854ac"></path><path d="M0 332L118.8 378L57.8 276Z" fill="#5ba8d7" stroke="#5ba8d7"></path><path d="M0 332L0 371L118.8 378Z" fill="#1f78c1" stroke="#1f78c1"></path><path d="M0 371L0 407L118.8 378Z" fill="#126cbb" stroke="#126cbb"></path><path d="M0 210L0 332L57.8 276Z" fill="#4b9cd2" stroke="#4b9cd2"></path><path d="M289.3 0L201.5 0L266.5 48Z" fill="#2d84c7" stroke="#2d84c7"></path><path d="M0 541L51.8 600L37.8 484Z" fill="#0854ac" stroke="#0854ac"></path><path d="M37.8 484L51.8 600L121.6 567Z" fill="#0860b4" stroke="#0860b4"></path><path d="M900 434L900 390L837.2 451Z" fill="#1f78c1" stroke="#1f78c1"></path><path d="M837.2 451L900 390L823.2 374Z" fill="#0860b4" stroke="#0860b4"></path><path d="M900 434L837.2 451L900 545Z" fill="#4b9cd2" stroke="#4b9cd2"></path><path d="M900 545L837.2 451L823.2 514Z" fill="#126cbb" stroke="#126cbb"></path><path d="M201.5 0L168.6 0L191.6 76Z" fill="#3c90cd" stroke="#3c90cd"></path><path d="M900 390L900 291L823.2 374Z" fill="#0860b4" stroke="#0860b4"></path><path d="M900 184L832.2 87L779.2 153Z" fill="#0854ac" stroke="#0854ac"></path><path d="M754.4 71L720.4 0L681.5 97Z" fill="#4b9cd2" stroke="#4b9cd2"></path><path d="M848.2 0L720.4 0L754.4 71Z" fill="#7dbfe1" stroke="#7dbfe1"></path><path d="M0 407L0 541L37.8 484Z" fill="#1f78c1" stroke="#1f78c1"></path><path d="M80.8 137L0 210L123.6 192Z" fill="#0854ac" stroke="#0854ac"></path><path d="M0 140L0 210L80.8 137Z" fill="#4b9cd2" stroke="#4b9cd2"></path><path d="M900 291L900 245L855.2 251Z" fill="#0860b4" stroke="#0860b4"></path><path d="M900 184L779.2 153L855.2 251Z" fill="#0854ac" stroke="#0854ac"></path><path d="M900 600L900 545L823.2 514Z" fill="#0860b4" stroke="#0860b4"></path><path d="M168.6 0L85.8 38L191.6 76Z" fill="#6cb3dc" stroke="#6cb3dc"></path><path d="M0 541L0 600L51.8 600Z" fill="#8ecae6" stroke="#8ecae6"></path><path d="M900 245L900 184L855.2 251Z" fill="#7dbfe1" stroke="#7dbfe1"></path><path d="M0 116L0 140L80.8 137Z" fill="#0860b4" stroke="#0860b4"></path><path d="M787.2 600L900 600L823.2 514Z" fill="#126cbb" stroke="#126cbb"></path><path d="M168.6 0L95.8 0L85.8 38Z" fill="#4b9cd2" stroke="#4b9cd2"></path><path d="M85.8 38L0 116L80.8 137Z" fill="#126cbb" stroke="#126cbb"></path><path d="M0 0L0 116L85.8 38Z" fill="#8ecae6" stroke="#8ecae6"></path><path d="M900 184L900 86L832.2 87Z" fill="#4b9cd2" stroke="#4b9cd2"></path><path d="M832.2 87L848.2 0L754.4 71Z" fill="#126cbb" stroke="#126cbb"></path><path d="M900 86L848.2 0L832.2 87Z" fill="#126cbb" stroke="#126cbb"></path><path d="M95.8 0L0 0L85.8 38Z" fill="#2d84c7" stroke="#2d84c7"></path><path d="M900 86L900 0L848.2 0Z" fill="#8ecae6" stroke="#8ecae6"></path></g></svg>